<svg width="47" height="37" viewBox="0 0 47 37" fill="none" xmlns="http://www.w3.org/2000/svg">
<mask id="mask0_16_55" style="mask-type:alpha" maskUnits="userSpaceOnUse" x="0" y="0" width="47" height="37">
<rect width="47" height="37" fill="#D9D9D9"/>
</mask>
<g mask="url(#mask0_16_55)">
<path d="M16.1169 27.7179C17.5259 28.3126 19.2456 28.6102 21.276 28.6102C21.8129 28.6102 22.3305 28.5888 22.8286 28.5458L22.5597 29.2882C22.3895 29.7625 22.021 30 21.4537 30H16.2049C16.0348 30 15.8836 29.9431 15.7513 29.8294C15.6379 29.6966 15.5808 29.5731 15.5807 29.4593C15.5807 29.3266 15.5906 29.2318 15.6095 29.1748L16.1169 27.7179ZM29.3686 10.0751C30.0495 10.0751 30.475 10.3886 30.6452 11.0148L36.9718 29.1748C36.9906 29.2318 37 29.3266 37 29.4593C36.9999 29.5731 36.9341 29.6966 36.8017 29.8294C36.6883 29.9432 36.5464 29.9999 36.3764 30H31.1276C30.5602 30 30.1913 29.7626 30.021 29.2882L29.3404 27.41H27.1468C27.5167 27.2244 27.8674 27.0173 28.1985 26.7886C29.9763 25.5552 30.8652 23.9704 30.8652 22.0348C30.8652 20.0805 30.2596 18.6288 29.0492 17.68C27.8576 16.7123 25.8529 16.0484 23.035 15.6879C21.8246 15.5361 20.9922 15.3653 20.5383 15.1756C20.5229 15.1689 20.5086 15.1606 20.4938 15.1538L21.0093 13.674C21.0849 13.6695 21.1645 13.6669 21.2478 13.6669C21.8528 13.6669 22.3351 13.8279 22.6944 14.1504C23.0538 14.4729 23.4513 14.6343 23.8863 14.6343H29.5598C29.7111 14.6343 29.844 14.5776 29.9575 14.4637C30.0898 14.3309 30.1558 14.1788 30.1558 14.0081C30.1557 12.6414 29.345 11.331 27.7248 10.0751H29.3686ZM27.1468 27.41C25.9208 28.0249 24.4814 28.4034 22.8286 28.5458L23.2409 27.41H27.1468ZM18.1361 21.9215L16.1169 27.7179C15.5441 27.4762 15.0225 27.1854 14.5524 26.8453C12.926 25.6689 12.1128 24.2364 12.1127 22.5477C12.1127 22.3769 12.1693 22.2343 12.2827 22.1204C12.4151 21.9876 12.5667 21.9215 12.7369 21.9215H18.1361ZM18.5631 20.6957C18.9905 20.7854 19.4408 20.8626 19.9141 20.9251C21.3325 21.1149 22.2973 21.3044 22.8079 21.4942C23.3185 21.6649 23.5738 21.9212 23.5739 22.2627C23.5739 22.794 22.8645 23.0601 21.446 23.0601C20.5951 23.06 19.924 22.8699 19.4323 22.4905C18.9631 22.1139 18.5308 21.9244 18.1361 21.9215L18.5631 20.6957ZM27.8937 21.8593H24.6875L26.2765 16.5649L27.8937 21.8593ZM21.276 8.11626C23.886 8.11626 26.0136 8.75203 27.659 10.0233C27.6812 10.0403 27.7029 10.0581 27.7248 10.0751H23.2127C22.5318 10.0751 22.1063 10.3886 21.936 11.0148L21.0093 13.674C20.2604 13.7183 19.8859 13.9812 19.8859 14.4637C19.8859 14.7383 20.0889 14.9675 20.4938 15.1538L18.5631 20.6957C14.5844 19.8604 12.5951 17.8498 12.5951 14.6627C12.5952 12.7273 13.3891 11.1522 14.9777 9.93777C16.5854 8.72331 18.6849 8.11626 21.276 8.11626Z" fill="#42E0CE"/>
<path d="M11.4823 13.5467C11.4823 11.6112 12.2766 10.0362 13.8654 8.82169C15.473 7.60723 17.5724 7 20.1635 7C22.7735 7 24.9013 7.6357 26.5468 8.90709C28.2111 10.1785 29.0433 11.5068 29.0433 12.892C29.0433 13.0628 28.9771 13.2146 28.8447 13.3475C28.7312 13.4613 28.5989 13.5182 28.4475 13.5182H22.7735C22.3385 13.5182 21.9414 13.357 21.582 13.0344C21.2227 12.7118 20.7404 12.5505 20.1351 12.5505C19.2273 12.5505 18.7734 12.8161 18.7734 13.3475C18.7734 13.6321 18.9909 13.8693 19.4259 14.0591C19.8798 14.2488 20.712 14.4196 21.9224 14.5714C24.7405 14.932 26.7453 15.5961 27.9369 16.5639C29.1473 17.5127 29.7526 18.9644 29.7526 20.9189C29.7526 22.8544 28.8636 24.4389 27.0858 25.6724C25.3268 26.8868 23.0194 27.4941 20.1635 27.4941C17.3076 27.4941 15.0664 26.9058 13.4398 25.7293C11.8133 24.5528 11 23.1201 11 21.4312C11 21.2604 11.0567 21.1181 11.1702 21.0043C11.3026 20.8714 11.4539 20.805 11.6241 20.805H17.0144C17.4116 20.805 17.8466 20.9948 18.3195 21.3743C18.8112 21.7538 19.4826 21.9436 20.3337 21.9436C21.7522 21.9436 22.4615 21.6779 22.4615 21.1466C22.4615 20.805 22.2061 20.5488 21.6955 20.3781C21.1848 20.1883 20.2202 19.9985 18.8017 19.8088C13.9221 19.1636 11.4823 17.0762 11.4823 13.5467Z" fill="#FF5F05"/>
</g>
</svg>
