<svg width="777" height="409" viewBox="0 0 777 409" fill="none" xmlns="http://www.w3.org/2000/svg">
<g filter="url(#filter0_d_7_39)">
<path d="M212.524 301.1H254.86C269.168 301.1 280.928 304.677 290.14 311.831C299.45 318.887 304.105 328.785 304.105 341.525V363.428C304.105 376.756 299.597 386.85 290.581 393.71C281.565 400.57 269.707 404 255.007 404H212.524C211.446 404 210.515 403.608 209.731 402.824C208.947 402.04 208.555 401.109 208.555 400.031V305.069C208.555 303.991 208.947 303.06 209.731 302.276C210.515 301.492 211.446 301.1 212.524 301.1ZM245.305 329.765V375.335H254.86C258.192 375.335 260.838 374.355 262.798 372.395C264.856 370.337 265.885 367.348 265.885 363.428V341.525C265.885 333.685 262.21 329.765 254.86 329.765H245.305ZM354.198 404H324.21C323.132 404 322.201 403.608 321.417 402.824C320.633 402.04 320.241 401.109 320.241 400.031V305.069C320.241 303.991 320.633 303.06 321.417 302.276C322.201 301.492 323.132 301.1 324.21 301.1H354.198C355.276 301.1 356.207 301.492 356.991 302.276C357.775 303.06 358.167 303.991 358.167 305.069V400.031C358.167 401.109 357.775 402.04 356.991 402.824C356.207 403.608 355.276 404 354.198 404ZM439.266 301.1H465.873C466.951 301.1 467.882 301.492 468.666 302.276C469.45 303.06 469.842 303.991 469.842 305.069V400.031C469.842 401.109 469.45 402.04 468.666 402.824C467.882 403.608 466.951 404 465.873 404H442.647C440.099 404 438.09 402.873 436.62 400.619L411.777 363.134V400.031C411.777 401.109 411.385 402.04 410.601 402.824C409.817 403.608 408.886 404 407.808 404H381.201C380.123 404 379.192 403.608 378.408 402.824C377.624 402.04 377.232 401.109 377.232 400.031V305.069C377.232 303.991 377.624 303.06 378.408 302.276C379.192 301.492 380.123 301.1 381.201 301.1H404.427C407.171 301.1 409.18 302.227 410.454 304.481L435.297 345.2V305.069C435.297 303.991 435.689 303.06 436.473 302.276C437.257 301.492 438.188 301.1 439.266 301.1ZM541.69 341.966H582.115C583.193 341.966 584.124 342.358 584.908 343.142C585.692 343.926 586.084 344.857 586.084 345.935V365.045C586.084 377.981 581.478 387.977 572.266 395.033C563.054 401.991 550.755 405.47 535.369 405.47C520.081 405.47 508.027 402.089 499.207 395.327C490.387 388.467 485.977 378.226 485.977 364.604V339.908C485.977 326.874 490.485 316.927 499.501 310.067C508.517 303.109 520.522 299.63 535.516 299.63C550.608 299.63 562.809 302.815 572.119 309.185C581.429 315.457 586.084 323.199 586.084 332.411C586.084 333.293 585.741 334.077 585.055 334.763C584.467 335.351 583.732 335.645 582.85 335.645H550.363C548.403 335.645 546.982 335.106 546.1 334.028C544.14 331.48 542.67 330.01 541.69 329.618C539.436 328.736 537.378 328.295 535.516 328.295C527.97 328.295 524.197 331.97 524.197 339.32V364.31C524.197 372.64 528.215 376.805 536.251 376.805C544.483 376.805 548.599 373.277 548.599 366.221H541.69C540.612 366.221 539.681 365.829 538.897 365.045C538.113 364.261 537.721 363.33 537.721 362.252V345.935C537.721 344.857 538.113 343.926 538.897 343.142C539.681 342.358 540.612 341.966 541.69 341.966ZM637.606 375.335H682.882C683.96 375.335 684.891 375.727 685.675 376.511C686.459 377.295 686.851 378.226 686.851 379.304V400.031C686.851 401.109 686.459 402.04 685.675 402.824C684.891 403.608 683.96 404 682.882 404H606.295C605.217 404 604.286 403.608 603.502 402.824C602.718 402.04 602.326 401.109 602.326 400.031V305.069C602.326 303.991 602.718 303.06 603.502 302.276C604.286 301.492 605.217 301.1 606.295 301.1H681.706C682.784 301.1 683.715 301.492 684.499 302.276C685.283 303.06 685.675 303.991 685.675 305.069V325.796C685.675 326.874 685.283 327.805 684.499 328.589C683.715 329.373 682.784 329.765 681.706 329.765H637.606V339.026H678.472C679.55 339.026 680.481 339.418 681.265 340.202C682.049 340.986 682.441 341.917 682.441 342.995V362.105C682.441 363.183 682.049 364.114 681.265 364.898C680.481 365.682 679.55 366.074 678.472 366.074H637.606V375.335Z" fill="#FF0000"/>
</g>
<g filter="url(#filter1_d_7_39)">
<path d="M532.372 202.3H558.58C567.437 202.3 574.717 204.514 580.42 208.943C586.183 213.311 589.065 219.438 589.065 227.325V240.884C589.065 249.135 586.274 255.383 580.693 259.63C575.112 263.877 567.771 266 558.671 266H532.372C531.705 266 531.128 265.757 530.643 265.272C530.158 264.787 529.915 264.21 529.915 263.543V204.757C529.915 204.09 530.158 203.513 530.643 203.028C531.128 202.543 531.705 202.3 532.372 202.3ZM552.665 220.045V248.255H558.58C560.643 248.255 562.281 247.648 563.494 246.435C564.768 245.161 565.405 243.311 565.405 240.884V227.325C565.405 222.472 563.13 220.045 558.58 220.045H552.665ZM620.894 248.255H648.922C649.589 248.255 650.165 248.498 650.651 248.983C651.136 249.468 651.379 250.045 651.379 250.712V263.543C651.379 264.21 651.136 264.787 650.651 265.272C650.165 265.757 649.589 266 648.922 266H601.511C600.843 266 600.267 265.757 599.782 265.272C599.296 264.787 599.054 264.21 599.054 263.543V204.757C599.054 204.09 599.296 203.513 599.782 203.028C600.267 202.543 600.843 202.3 601.511 202.3H648.194C648.861 202.3 649.437 202.543 649.923 203.028C650.408 203.513 650.651 204.09 650.651 204.757V217.588C650.651 218.255 650.408 218.832 649.923 219.317C649.437 219.802 648.861 220.045 648.194 220.045H620.894V225.778H646.192C646.859 225.778 647.435 226.021 647.921 226.506C648.406 226.991 648.649 227.568 648.649 228.235V240.065C648.649 240.732 648.406 241.309 647.921 241.794C647.435 242.279 646.859 242.522 646.192 242.522H620.894V248.255ZM720.931 262.997C721.113 263.361 721.204 263.755 721.204 264.18C721.204 264.605 720.992 265.029 720.567 265.454C720.203 265.818 719.748 266 719.202 266H700.547C698.666 266 697.362 265.181 696.634 263.543L688.808 246.162H685.077V263.543C685.077 264.21 684.834 264.787 684.349 265.272C683.864 265.757 683.287 266 682.62 266H664.784C664.117 266 663.54 265.757 663.055 265.272C662.57 264.787 662.327 264.21 662.327 263.543V204.757C662.327 204.09 662.57 203.513 663.055 203.028C663.54 202.543 664.117 202.3 664.784 202.3H691.72C700.456 202.3 707.281 204.272 712.195 208.215C717.109 212.098 719.566 217.709 719.566 225.05C719.566 232.33 716.29 238.063 709.738 242.249L720.931 262.997ZM685.077 219.226V228.872H691.72C693.055 228.872 694.086 228.447 694.814 227.598C695.542 226.688 695.906 225.566 695.906 224.231C695.906 222.896 695.542 221.744 694.814 220.773C694.147 219.742 693.115 219.226 691.72 219.226H685.077Z" fill="#FF0000"/>
</g>
<g filter="url(#filter2_d_7_39)">
<path d="M19.768 233.88C19.768 224.088 23.8 216.12 31.864 209.976C40.024 203.832 50.68 200.76 63.832 200.76C77.08 200.76 87.88 203.976 96.232 210.408C104.68 216.84 108.904 223.56 108.904 230.568C108.904 231.432 108.568 232.2 107.896 232.872C107.32 233.448 106.648 233.736 105.88 233.736H77.08C74.872 233.736 72.856 232.92 71.032 231.288C69.208 229.656 66.76 228.84 63.688 228.84C59.08 228.84 56.776 230.184 56.776 232.872C56.776 234.312 57.88 235.512 60.088 236.472C62.392 237.432 66.616 238.296 72.76 239.064C87.064 240.888 97.24 244.248 103.288 249.144C109.432 253.944 112.504 261.288 112.504 271.176C112.504 280.968 107.992 288.984 98.968 295.224C90.04 301.368 78.328 304.44 63.832 304.44C49.336 304.44 37.96 301.464 29.704 295.512C21.448 289.56 17.32 282.312 17.32 273.768C17.32 272.904 17.608 272.184 18.184 271.608C18.856 270.936 19.624 270.6 20.488 270.6H47.848C49.864 270.6 52.072 271.56 54.472 273.48C56.968 275.4 60.376 276.36 64.696 276.36C71.896 276.36 75.496 275.016 75.496 272.328C75.496 270.6 74.2 269.304 71.608 268.44C69.016 267.48 64.12 266.52 56.92 265.56C32.152 262.296 19.768 251.736 19.768 233.88ZM159.405 303H130.029C128.973 303 128.061 302.616 127.293 301.848C126.525 301.08 126.141 300.168 126.141 299.112V206.088C126.141 205.032 126.525 204.12 127.293 203.352C128.061 202.584 128.973 202.2 130.029 202.2H159.405C160.461 202.2 161.373 202.584 162.141 203.352C162.909 204.12 163.293 205.032 163.293 206.088V299.112C163.293 300.168 162.909 301.08 162.141 301.848C161.373 302.616 160.461 303 159.405 303ZM216.529 240.504V264.696C216.529 272.472 220.081 276.36 227.185 276.36C232.657 276.36 236.257 273.768 237.985 268.584C238.465 266.952 239.041 265.848 239.713 265.272C240.481 264.696 241.681 264.408 243.313 264.408H272.689C273.553 264.408 274.273 264.744 274.849 265.416C275.521 265.992 275.857 266.712 275.857 267.576C275.857 275.928 273.457 282.936 268.657 288.6C259.825 299.16 246.049 304.44 227.329 304.44C212.641 304.44 200.929 301.224 192.193 294.792C183.457 288.264 179.089 278.28 179.089 264.84V240.36C179.089 227.208 183.553 217.32 192.481 210.696C201.409 204.072 213.025 200.76 227.329 200.76C246.049 200.76 259.825 206.04 268.657 216.6C273.457 222.264 275.857 229.272 275.857 237.624C275.857 238.488 275.521 239.256 274.849 239.928C274.273 240.504 273.553 240.792 272.689 240.792H243.313C241.777 240.792 240.625 240.504 239.857 239.928C239.185 239.352 238.561 238.248 237.985 236.616C236.161 231.432 232.561 228.84 227.185 228.84C220.081 228.84 216.529 232.728 216.529 240.504ZM352.764 202.2H380.988C382.044 202.2 382.956 202.584 383.724 203.352C384.492 204.12 384.876 205.032 384.876 206.088V299.112C384.876 300.168 384.492 301.08 383.724 301.848C382.956 302.616 382.044 303 380.988 303H352.764C351.708 303 350.796 302.616 350.028 301.848C349.26 301.08 348.876 300.168 348.876 299.112V268.008H325.548V299.112C325.548 300.168 325.164 301.08 324.396 301.848C323.628 302.616 322.716 303 321.66 303H293.436C292.38 303 291.468 302.664 290.7 301.992C289.932 301.224 289.548 300.264 289.548 299.112V206.088C289.548 205.032 289.932 204.12 290.7 203.352C291.468 202.584 292.38 202.2 293.436 202.2H321.66C322.716 202.2 323.628 202.584 324.396 203.352C325.164 204.12 325.548 205.032 325.548 206.088V236.328H348.876V206.088C348.876 205.032 349.26 204.12 350.028 203.352C350.796 202.584 351.708 202.2 352.764 202.2ZM402.442 202.2H486.826C487.882 202.2 488.794 202.584 489.562 203.352C490.33 204.12 490.714 205.032 490.714 206.088V229.272C490.714 230.328 490.33 231.24 489.562 232.008C488.794 232.776 487.882 233.16 486.826 233.16H462.922V299.112C462.922 300.168 462.538 301.08 461.77 301.848C461.002 302.616 460.09 303 459.034 303H430.234C429.178 303 428.266 302.616 427.498 301.848C426.73 301.08 426.346 300.168 426.346 299.112V233.16H402.442C401.386 233.16 400.474 232.776 399.706 232.008C398.938 231.24 398.554 230.328 398.554 229.272V206.088C398.554 205.032 398.938 204.12 399.706 203.352C400.474 202.584 401.386 202.2 402.442 202.2Z" fill="#FF0000"/>
</g>
<g filter="url(#filter3_d_7_39)">
<path d="M128.896 101.2H160.144C163.6 101.2 165.76 102.784 166.624 105.952L198.736 197.824C198.832 198.112 198.88 198.592 198.88 199.264C198.88 199.84 198.544 200.464 197.872 201.136C197.296 201.712 196.576 202 195.712 202H169.072C166.192 202 164.32 200.8 163.456 198.4L160 188.896H129.04L125.584 198.4C124.72 200.8 122.848 202 119.968 202H93.328C92.464 202 91.696 201.712 91.024 201.136C90.448 200.464 90.16 199.84 90.16 199.264C90.16 198.592 90.208 198.112 90.304 197.824L122.416 105.952C123.28 102.784 125.44 101.2 128.896 101.2ZM136.384 160.816H152.656L144.448 134.032L136.384 160.816ZM271.191 101.2H297.255C298.311 101.2 299.223 101.584 299.991 102.352C300.759 103.12 301.143 104.032 301.143 105.088V198.112C301.143 199.168 300.759 200.08 299.991 200.848C299.223 201.616 298.311 202 297.255 202H274.503C272.007 202 270.039 200.896 268.599 198.688L244.263 161.968V198.112C244.263 199.168 243.879 200.08 243.111 200.848C242.343 201.616 241.431 202 240.375 202H214.311C213.255 202 212.343 201.616 211.575 200.848C210.807 200.08 210.423 199.168 210.423 198.112V105.088C210.423 104.032 210.807 103.12 211.575 102.352C212.343 101.584 213.255 101.2 214.311 101.2H237.062C239.751 101.2 241.719 102.304 242.967 104.512L267.303 144.4V105.088C267.303 104.032 267.687 103.12 268.455 102.352C269.223 101.584 270.135 101.2 271.191 101.2ZM323.717 101.2H365.189C379.205 101.2 390.725 104.704 399.749 111.712C408.869 118.624 413.429 128.32 413.429 140.8V162.256C413.429 175.312 409.013 185.2 400.181 191.92C391.349 198.64 379.733 202 365.333 202H323.717C322.661 202 321.749 201.616 320.981 200.848C320.213 200.08 319.829 199.168 319.829 198.112V105.088C319.829 104.032 320.213 103.12 320.981 102.352C321.749 101.584 322.661 101.2 323.717 101.2ZM355.829 129.28V173.92H365.189C368.453 173.92 371.045 172.96 372.965 171.04C374.981 169.024 375.989 166.096 375.989 162.256V140.8C375.989 133.12 372.389 129.28 365.189 129.28H355.829ZM463.795 173.92H508.147C509.203 173.92 510.115 174.304 510.883 175.072C511.651 175.84 512.035 176.752 512.035 177.808V198.112C512.035 199.168 511.651 200.08 510.883 200.848C510.115 201.616 509.203 202 508.147 202H433.123C432.067 202 431.155 201.616 430.387 200.848C429.619 200.08 429.235 199.168 429.235 198.112V105.088C429.235 104.032 429.619 103.12 430.387 102.352C431.155 101.584 432.067 101.2 433.123 101.2H506.995C508.051 101.2 508.963 101.584 509.731 102.352C510.499 103.12 510.883 104.032 510.883 105.088V125.392C510.883 126.448 510.499 127.36 509.731 128.128C508.963 128.896 508.051 129.28 506.995 129.28H463.795V138.352H503.827C504.883 138.352 505.795 138.736 506.563 139.504C507.331 140.272 507.715 141.184 507.715 142.24V160.96C507.715 162.016 507.331 162.928 506.563 163.696C505.795 164.464 504.883 164.848 503.827 164.848H463.795V173.92ZM622.096 197.248C622.384 197.824 622.528 198.448 622.528 199.12C622.528 199.792 622.192 200.464 621.52 201.136C620.944 201.712 620.224 202 619.36 202H589.84C586.864 202 584.8 200.704 583.648 198.112L571.264 170.608H565.36V198.112C565.36 199.168 564.976 200.08 564.208 200.848C563.44 201.616 562.528 202 561.472 202H533.248C532.192 202 531.28 201.616 530.512 200.848C529.744 200.08 529.36 199.168 529.36 198.112V105.088C529.36 104.032 529.744 103.12 530.512 102.352C531.28 101.584 532.192 101.2 533.248 101.2H575.872C589.696 101.2 600.496 104.32 608.272 110.56C616.048 116.704 619.936 125.584 619.936 137.2C619.936 148.72 614.752 157.792 604.384 164.416L622.096 197.248ZM565.36 127.984V143.248H575.872C577.984 143.248 579.616 142.576 580.768 141.232C581.92 139.792 582.496 138.016 582.496 135.904C582.496 133.792 581.92 131.968 580.768 130.432C579.712 128.8 578.08 127.984 575.872 127.984H565.36ZM670.795 173.92H715.147C716.203 173.92 717.115 174.304 717.883 175.072C718.651 175.84 719.035 176.752 719.035 177.808V198.112C719.035 199.168 718.651 200.08 717.883 200.848C717.115 201.616 716.203 202 715.147 202H640.123C639.067 202 638.155 201.616 637.387 200.848C636.619 200.08 636.235 199.168 636.235 198.112V105.088C636.235 104.032 636.619 103.12 637.387 102.352C638.155 101.584 639.067 101.2 640.123 101.2H713.995C715.051 101.2 715.963 101.584 716.731 102.352C717.499 103.12 717.883 104.032 717.883 105.088V125.392C717.883 126.448 717.499 127.36 716.731 128.128C715.963 128.896 715.051 129.28 713.995 129.28H670.795V138.352H710.827C711.883 138.352 712.795 138.736 713.563 139.504C714.331 140.272 714.715 141.184 714.715 142.24V160.96C714.715 162.016 714.331 162.928 713.563 163.696C712.795 164.464 711.883 164.848 710.827 164.848H670.795V173.92Z" fill="#FF0000"/>
</g>
<g filter="url(#filter4_d_7_39)">
<path d="M288.755 83.255H316.783C317.45 83.255 318.027 83.4977 318.512 83.983C318.997 84.4683 319.24 85.0447 319.24 85.712V98.543C319.24 99.2103 318.997 99.7867 318.512 100.272C318.027 100.757 317.45 101 316.783 101H269.372C268.705 101 268.128 100.757 267.643 100.272C267.158 99.7867 266.915 99.2103 266.915 98.543V39.757C266.915 39.0897 267.158 38.5133 267.643 38.028C268.128 37.5427 268.705 37.3 269.372 37.3H316.055C316.722 37.3 317.299 37.5427 317.784 38.028C318.269 38.5133 318.512 39.0897 318.512 39.757V52.588C318.512 53.2553 318.269 53.8317 317.784 54.317C317.299 54.8023 316.722 55.045 316.055 55.045H288.755V60.778H314.053C314.72 60.778 315.297 61.0207 315.782 61.506C316.267 61.9913 316.51 62.5677 316.51 63.235V75.065C316.51 75.7323 316.267 76.3087 315.782 76.794C315.297 77.2793 314.72 77.522 314.053 77.522H288.755V83.255ZM329.46 37.3H382.786C383.454 37.3 384.03 37.5427 384.515 38.028C385.001 38.5133 385.243 39.0897 385.243 39.757V54.408C385.243 55.0753 385.001 55.6517 384.515 56.137C384.03 56.6223 383.454 56.865 382.786 56.865H367.68V98.543C367.68 99.2103 367.438 99.7867 366.952 100.272C366.467 100.757 365.891 101 365.223 101H347.023C346.356 101 345.78 100.757 345.294 100.272C344.809 99.7867 344.566 99.2103 344.566 98.543V56.865H329.46C328.793 56.865 328.217 56.6223 327.731 56.137C327.246 55.6517 327.003 55.0753 327.003 54.408V39.757C327.003 39.0897 327.246 38.5133 327.731 38.028C328.217 37.5427 328.793 37.3 329.46 37.3ZM416.747 101H403.734C402.582 101 401.611 100.666 400.822 99.999C400.094 99.271 399.67 98.452 399.548 97.542L391.176 39.575V39.302C391.176 38.756 391.358 38.301 391.722 37.937C392.147 37.5123 392.632 37.3 393.178 37.3H410.104C412.106 37.3 413.198 38.119 413.38 39.757L416.474 65.419L420.205 54.044C420.812 52.2847 421.843 51.405 423.299 51.405H432.581C434.037 51.405 435.069 52.2847 435.675 54.044L439.406 65.328L442.5 39.757C442.682 38.119 443.774 37.3 445.776 37.3H462.702C463.248 37.3 463.703 37.5123 464.067 37.937C464.492 38.301 464.704 38.756 464.704 39.302V39.575L456.332 97.542C456.211 98.452 455.756 99.271 454.967 99.999C454.239 100.666 453.299 101 452.146 101H439.133C437.253 101 436.009 100.181 435.402 98.543L427.94 79.888L420.478 98.543C419.872 100.181 418.628 101 416.747 101ZM493.727 37.3H513.474C515.658 37.3 517.023 38.301 517.569 40.303L537.862 98.361C537.922 98.543 537.953 98.8463 537.953 99.271C537.953 99.635 537.74 100.029 537.316 100.454C536.952 100.818 536.497 101 535.951 101H519.116C517.296 101 516.113 100.242 515.567 98.725L513.383 92.719H493.818L491.634 98.725C491.088 100.242 489.905 101 488.085 101H471.25C470.704 101 470.218 100.818 469.794 100.454C469.43 100.029 469.248 99.635 469.248 99.271C469.248 98.8463 469.278 98.543 469.339 98.361L489.632 40.303C490.178 38.301 491.543 37.3 493.727 37.3ZM498.459 74.974H508.742L503.555 58.048L498.459 74.974ZM543.609 57.32C543.609 51.132 546.157 46.0967 551.253 42.214C556.41 38.3313 563.144 36.39 571.455 36.39C579.827 36.39 586.652 38.4223 591.93 42.487C597.269 46.5517 599.938 50.7983 599.938 55.227C599.938 55.773 599.726 56.2583 599.301 56.683C598.937 57.047 598.512 57.229 598.027 57.229H579.827C578.432 57.229 577.158 56.7133 576.005 55.682C574.852 54.6507 573.305 54.135 571.364 54.135C568.452 54.135 566.996 54.9843 566.996 56.683C566.996 57.593 567.694 58.3513 569.089 58.958C570.545 59.5647 573.214 60.1107 577.097 60.596C586.136 61.7487 592.567 63.872 596.389 66.966C600.272 69.9993 602.213 74.6403 602.213 80.889C602.213 87.077 599.362 92.1427 593.659 96.086C588.017 99.9687 580.616 101.91 571.455 101.91C562.294 101.91 555.105 100.029 549.888 96.268C544.671 92.5067 542.062 87.9263 542.062 82.527C542.062 81.981 542.244 81.526 542.608 81.162C543.033 80.7373 543.518 80.525 544.064 80.525H561.354C562.628 80.525 564.023 81.1317 565.54 82.345C567.117 83.5583 569.271 84.165 572.001 84.165C576.551 84.165 578.826 83.3157 578.826 81.617C578.826 80.525 578.007 79.706 576.369 79.16C574.731 78.5533 571.637 77.9467 567.087 77.34C551.435 75.2773 543.609 68.604 543.609 57.32Z" fill="#FF0000"/>
</g>
<g filter="url(#filter5_d_7_39)">
<path d="M20.248 0.199993H61.72C75.736 0.199993 87.256 3.70399 96.28 10.712C105.4 17.624 109.96 27.32 109.96 39.8V61.256C109.96 74.312 105.544 84.2 96.712 90.92C87.88 97.64 76.264 101 61.864 101H20.248C19.192 101 18.28 100.616 17.512 99.848C16.744 99.08 16.36 98.168 16.36 97.112V4.08799C16.36 3.032 16.744 2.12 17.512 1.352C18.28 0.583994 19.192 0.199993 20.248 0.199993ZM52.36 28.28V72.92H61.72C64.984 72.92 67.576 71.96 69.496 70.04C71.512 68.024 72.52 65.096 72.52 61.256V39.8C72.52 32.12 68.92 28.28 61.72 28.28H52.36ZM159.03 101H129.654C128.598 101 127.686 100.616 126.918 99.848C126.15 99.08 125.766 98.168 125.766 97.112V4.08799C125.766 3.032 126.15 2.12 126.918 1.352C127.686 0.583994 128.598 0.199993 129.654 0.199993H159.03C160.086 0.199993 160.998 0.583994 161.766 1.352C162.534 2.12 162.918 3.032 162.918 4.08799V97.112C162.918 98.168 162.534 99.08 161.766 99.848C160.998 100.616 160.086 101 159.03 101ZM216.154 72.92H260.506C261.562 72.92 262.474 73.304 263.242 74.072C264.01 74.84 264.394 75.752 264.394 76.808V97.112C264.394 98.168 264.01 99.08 263.242 99.848C262.474 100.616 261.562 101 260.506 101H185.482C184.426 101 183.514 100.616 182.746 99.848C181.978 99.08 181.594 98.168 181.594 97.112V4.08799C181.594 3.032 181.978 2.12 182.746 1.352C183.514 0.583994 184.426 0.199993 185.482 0.199993H259.354C260.41 0.199993 261.322 0.583994 262.09 1.352C262.858 2.12 263.242 3.032 263.242 4.08799V24.392C263.242 25.448 262.858 26.36 262.09 27.128C261.322 27.896 260.41 28.28 259.354 28.28H216.154V37.352H256.186C257.242 37.352 258.154 37.736 258.922 38.504C259.69 39.272 260.074 40.184 260.074 41.24V59.96C260.074 61.016 259.69 61.928 258.922 62.696C258.154 63.464 257.242 63.848 256.186 63.848H216.154V72.92Z" fill="#FF0000"/>
</g>
<defs>
<filter id="filter0_d_7_39" x="192.555" y="299.63" width="494.296" height="105.84" filterUnits="userSpaceOnUse" color-interpolation-filters="sRGB">
<feFlood flood-opacity="0" result="BackgroundImageFix"/>
<feColorMatrix in="SourceAlpha" type="matrix" values="0 0 0 0 0 0 0 0 0 0 0 0 0 0 0 0 0 0 127 0" result="hardAlpha"/>
<feOffset dx="-16"/>
<feComposite in2="hardAlpha" operator="out"/>
<feColorMatrix type="matrix" values="0 0 0 0 0 0 0 0 0 0 0 0 0 0 0 0 0 0 0.25 0"/>
<feBlend mode="normal" in2="BackgroundImageFix" result="effect1_dropShadow_7_39"/>
<feBlend mode="normal" in="SourceGraphic" in2="effect1_dropShadow_7_39" result="shape"/>
</filter>
<filter id="filter1_d_7_39" x="513.915" y="202.3" width="207.289" height="63.7" filterUnits="userSpaceOnUse" color-interpolation-filters="sRGB">
<feFlood flood-opacity="0" result="BackgroundImageFix"/>
<feColorMatrix in="SourceAlpha" type="matrix" values="0 0 0 0 0 0 0 0 0 0 0 0 0 0 0 0 0 0 127 0" result="hardAlpha"/>
<feOffset dx="-16"/>
<feComposite in2="hardAlpha" operator="out"/>
<feColorMatrix type="matrix" values="0 0 0 0 0 0 0 0 0 0 0 0 0 0 0 0 0 0 0.25 0"/>
<feBlend mode="normal" in2="BackgroundImageFix" result="effect1_dropShadow_7_39"/>
<feBlend mode="normal" in="SourceGraphic" in2="effect1_dropShadow_7_39" result="shape"/>
</filter>
<filter id="filter2_d_7_39" x="1.32" y="200.76" width="489.394" height="103.68" filterUnits="userSpaceOnUse" color-interpolation-filters="sRGB">
<feFlood flood-opacity="0" result="BackgroundImageFix"/>
<feColorMatrix in="SourceAlpha" type="matrix" values="0 0 0 0 0 0 0 0 0 0 0 0 0 0 0 0 0 0 127 0" result="hardAlpha"/>
<feOffset dx="-16"/>
<feComposite in2="hardAlpha" operator="out"/>
<feColorMatrix type="matrix" values="0 0 0 0 0 0 0 0 0 0 0 0 0 0 0 0 0 0 0.25 0"/>
<feBlend mode="normal" in2="BackgroundImageFix" result="effect1_dropShadow_7_39"/>
<feBlend mode="normal" in="SourceGraphic" in2="effect1_dropShadow_7_39" result="shape"/>
</filter>
<filter id="filter3_d_7_39" x="74.16" y="101.2" width="644.875" height="100.8" filterUnits="userSpaceOnUse" color-interpolation-filters="sRGB">
<feFlood flood-opacity="0" result="BackgroundImageFix"/>
<feColorMatrix in="SourceAlpha" type="matrix" values="0 0 0 0 0 0 0 0 0 0 0 0 0 0 0 0 0 0 127 0" result="hardAlpha"/>
<feOffset dx="-16"/>
<feComposite in2="hardAlpha" operator="out"/>
<feColorMatrix type="matrix" values="0 0 0 0 0 0 0 0 0 0 0 0 0 0 0 0 0 0 0.25 0"/>
<feBlend mode="normal" in2="BackgroundImageFix" result="effect1_dropShadow_7_39"/>
<feBlend mode="normal" in="SourceGraphic" in2="effect1_dropShadow_7_39" result="shape"/>
</filter>
<filter id="filter4_d_7_39" x="250.915" y="36.39" width="351.298" height="65.52" filterUnits="userSpaceOnUse" color-interpolation-filters="sRGB">
<feFlood flood-opacity="0" result="BackgroundImageFix"/>
<feColorMatrix in="SourceAlpha" type="matrix" values="0 0 0 0 0 0 0 0 0 0 0 0 0 0 0 0 0 0 127 0" result="hardAlpha"/>
<feOffset dx="-16"/>
<feComposite in2="hardAlpha" operator="out"/>
<feColorMatrix type="matrix" values="0 0 0 0 0 0 0 0 0 0 0 0 0 0 0 0 0 0 0.25 0"/>
<feBlend mode="normal" in2="BackgroundImageFix" result="effect1_dropShadow_7_39"/>
<feBlend mode="normal" in="SourceGraphic" in2="effect1_dropShadow_7_39" result="shape"/>
</filter>
<filter id="filter5_d_7_39" x="0.360001" y="0.199993" width="264.034" height="100.8" filterUnits="userSpaceOnUse" color-interpolation-filters="sRGB">
<feFlood flood-opacity="0" result="BackgroundImageFix"/>
<feColorMatrix in="SourceAlpha" type="matrix" values="0 0 0 0 0 0 0 0 0 0 0 0 0 0 0 0 0 0 127 0" result="hardAlpha"/>
<feOffset dx="-16"/>
<feComposite in2="hardAlpha" operator="out"/>
<feColorMatrix type="matrix" values="0 0 0 0 0 0 0 0 0 0 0 0 0 0 0 0 0 0 0.25 0"/>
<feBlend mode="normal" in2="BackgroundImageFix" result="effect1_dropShadow_7_39"/>
<feBlend mode="normal" in="SourceGraphic" in2="effect1_dropShadow_7_39" result="shape"/>
</filter>
</defs>
</svg>
