<svg width="48" height="42" viewBox="0 0 48 42" fill="none" xmlns="http://www.w3.org/2000/svg">
<path d="M13.6913 33.0234C15.5339 33.7991 17.7827 34.1872 20.4379 34.1872C21.14 34.1872 21.8168 34.1593 22.4682 34.1033L22.1165 35.0715C21.8939 35.6903 21.412 35.9999 20.6702 36H13.8064C13.584 36 13.3863 35.9258 13.2132 35.7775C13.0649 35.6043 12.9902 35.4432 12.9902 35.2948C12.9902 35.1217 13.0031 34.998 13.0278 34.9237L13.6913 33.0234ZM31.0205 10.011C31.9109 10.011 32.4673 10.4198 32.6899 11.2366L40.9631 34.9237C40.9877 34.998 41 35.1217 41 35.2948C40.9999 35.4432 40.9138 35.6043 40.7407 35.7775C40.5924 35.9259 40.4069 35.9999 40.1845 36H33.3207C32.5788 36 32.0963 35.6903 31.8737 35.0715L30.9836 32.6217H28.115C28.5988 32.3797 29.0573 32.1095 29.4903 31.8113C31.8151 30.2025 32.9776 28.1353 32.9776 25.6107C32.9775 23.0615 32.1856 21.1679 30.6028 19.9304C29.0446 18.6683 26.423 17.8023 22.7381 17.332C21.1552 17.134 20.0667 16.9113 19.4732 16.6638C19.4531 16.655 19.4343 16.6442 19.4149 16.6353L20.0891 14.7052C20.188 14.6994 20.292 14.696 20.4009 14.696C21.1922 14.696 21.8228 14.9059 22.2927 15.3265C22.7626 15.7473 23.2824 15.9578 23.8513 15.9578H31.2705C31.4684 15.9578 31.6422 15.8838 31.7906 15.7353C31.9636 15.5621 32.0498 15.3637 32.0498 15.141C32.0497 13.3583 30.9896 11.6491 28.8709 10.011H31.0205ZM28.115 32.6217C26.5118 33.4238 24.6295 33.9175 22.4682 34.1033L23.0073 32.6217H28.115ZM16.3318 25.4628L13.6913 33.0234C12.9423 32.708 12.2602 32.3288 11.6454 31.8852C9.51858 30.3507 8.45518 28.4823 8.45507 26.2796C8.45507 26.0569 8.52902 25.8708 8.67742 25.7223C8.85054 25.549 9.04872 25.4628 9.2713 25.4628H16.3318ZM16.8902 23.8639C17.4492 23.981 18.0379 24.0816 18.6569 24.1632C20.5117 24.4107 21.7733 24.6579 22.4412 24.9054C23.1088 25.1282 23.4427 25.4624 23.4428 25.9078C23.4428 26.6009 22.5152 26.9479 20.6602 26.9479C19.5475 26.9479 18.6698 26.6999 18.0268 26.205C17.4132 25.7138 16.848 25.4666 16.3318 25.4628L16.8902 23.8639ZM29.0918 25.3817H24.8991L26.977 18.4759L29.0918 25.3817ZM20.4379 7.45599C23.8509 7.45599 26.6332 8.28525 28.7849 9.94348C28.8139 9.9656 28.8422 9.98887 28.8709 10.011H22.9704C22.08 10.011 21.5236 10.4198 21.301 11.2366L20.0891 14.7052C19.1098 14.763 18.62 15.1059 18.62 15.7353C18.62 16.0935 18.8855 16.3924 19.4149 16.6353L16.8902 23.8639C11.6873 22.7745 9.08589 20.1519 9.08589 15.9948C9.08599 13.4704 10.1242 11.4159 12.2016 9.83187C14.3039 8.2478 17.0495 7.456 20.4379 7.45599Z" fill="#42E0CE"/>
<path d="M7.63069 14.5392C7.63069 12.0146 8.66946 9.9602 10.747 8.37612C12.8493 6.79204 15.5947 6 18.983 6C22.3962 6 25.1786 6.82917 27.3304 8.4875C29.5069 10.1458 30.5951 11.8784 30.5951 13.6853C30.5951 13.908 30.5085 14.106 30.3354 14.2793C30.187 14.4278 30.0139 14.5021 29.816 14.5021H22.3962C21.8273 14.5021 21.3079 14.2917 20.838 13.8709C20.3681 13.4501 19.7374 13.2397 18.9459 13.2397C17.7588 13.2397 17.1652 13.5863 17.1652 14.2793C17.1652 14.6506 17.4496 14.96 18.0185 15.2075C18.6121 15.455 19.7003 15.6777 21.2832 15.8758C24.9684 16.346 27.5901 17.2123 29.1482 18.4746C30.7311 19.7122 31.5226 21.6057 31.5226 24.1551C31.5226 26.6797 30.3601 28.7464 28.0353 30.3553C25.7351 31.9393 22.7177 32.7314 18.983 32.7314C15.2484 32.7314 12.3176 31.9641 10.1905 30.4295C8.06351 28.8949 7 27.0262 7 24.8233C7 24.6006 7.0742 24.4149 7.2226 24.2664C7.39572 24.0932 7.59359 24.0066 7.81618 24.0066H14.865C15.3844 24.0066 15.9533 24.2541 16.5716 24.7491C17.2147 25.2441 18.0927 25.4916 19.2056 25.4916C21.0606 25.4916 21.9881 25.1451 21.9881 24.4521C21.9881 24.0066 21.6542 23.6724 20.9864 23.4496C20.3186 23.2021 19.0572 22.9546 17.2023 22.7071C10.8212 21.8656 7.63069 19.1429 7.63069 14.5392Z" fill="#FF5F05"/>
</svg>
